<svg height="512pt" viewBox="0 0 512 512" width="512pt" xmlns="http://www.w3.org/2000/svg"><path d="m499.183594 470.707031h-31.445313c-4.164062 0-7.539062 3.375-7.539062 7.539063 0 4.164062 3.375 7.542968 7.539062 7.542968h29.183594v10.554688h-174.960937l-.398438-10.554688h113.003906c4.164063 0 7.539063-3.378906 7.539063-7.542968 0-4.164063-3.375-7.539063-7.539063-7.539063h-113.574218l-1.683594-44.671875c-.160156-4.160156-3.65625-7.425781-7.820313-7.25-4.164062.15625-7.410156 3.65625-7.25 7.820313l2.632813 69.738281h-41.257813l9.953125-263.574219c.671875-.53125 1.347656-1.050781 2.007813-1.597656.363281.117187.726562.230469 1.097656.335937 1.605469.441407 3.230469.722657 4.855469.867188l14.058594 18.078125 5.398437 142.984375c.152344 4.0625 3.496094 7.253906 7.53125 7.253906.09375 0 .191406 0 .289063-.003906 4.160156-.160156 7.40625-3.660156 7.25-7.820312l-4.609376-122.011719 73.578126 94.632812c6.0625 7.796875 17.210937 8.996094 24.789062 3.105469 6.75-5.25 8.773438-14.554688 4.816406-22.128906l-47.503906-90.90625c-12.453125-23.832032-32.453125-43.246094-56.570312-55.054688-.601563-3.273437-1.808594-6.390625-3.519532-9.203125l46.660156-168.929687c1.257813-4.546875.667969-9.3125-1.660156-13.417969-2.328125-4.101563-6.113281-7.054687-10.664062-8.3125-8.238282-2.273437-16.90625 1.660156-20.617188 9.363281l-44.507812 92.40625c-12.226563 25.394532-15.632813 54.53125-9.589844 82.0625-1.253906 1.027344-2.417969 2.171875-3.472656 3.417969l-48.375 14.058594c-4 1.164062-6.300782 5.347656-5.136719 9.34375.957031 3.296875 3.96875 5.4375 7.238281 5.4375.695313 0 1.402344-.09375 2.105469-.300781l37.769531-10.976563c.023438 6.148437 2.144532 12.03125 5.859375 16.734375-16.296875 12.472656-35.535156 20.132812-56.132812 22.273438l-102.019531 10.59375c-1.242188.125-2.398438-.648438-2.75-1.847657-.398438-1.371093.394531-2.808593 1.761718-3.203125l82.761719-24.054687c4-1.160157 6.300781-5.34375 5.136719-9.34375-1.160156-4-5.347656-6.296875-9.34375-5.136719l-82.761719 24.054688c-9.355469 2.714843-14.753906 12.539062-12.035156 21.890624 2.214843 7.613282 9.167969 12.738282 16.949219 12.738282.609374 0 1.222656-.03125 1.839843-.097656l102.019531-10.59375c17.835938-1.851563 34.765626-7.363282 50.007813-16.152344l-8.585937 227.398437h-74.488282l-1.773437-47.003906 8.3125 17.402344c3.09375 6.472656 11.054687 9.011719 17.195312 6.078125 5.625-2.691406 8.523438-9.011719 6.878907-15.027344l-14.277344-52.324219c-3.523438-12.910156-10.507813-24.34375-20.292969-33.320312.003906-.128907.019531-.265625.019531-.394531l59.601563-64.359376c2.34375-2.527343 3.558593-5.8125 3.425781-9.257812-.132812-3.441406-1.597656-6.625-4.121094-8.960938-4.578125-4.242187-11.519531-4.597656-16.507812-.851562l-43.359375 32.582031c-11.523438 8.660157-20.160157 20.789063-24.640625 34.457031-.914063.441407-1.796875.960938-2.636719 1.5625l-90.730469-9.710937c-7.078125-.753906-13.4375 4.378906-14.195312 11.449219-.664063 6.203125 3.199218 11.984375 9.183594 13.742187l52.035156 15.300781c6.464844 1.898438 13.15625 2.84375 19.847656 2.84375 5.871094 0 11.738281-.742187 17.441406-2.191406l-4.078125 107.988282h-121.515625c-7.066406-.003907-12.816406 5.746093-12.816406 12.816406v15.078125c0 7.066406 5.75 12.816406 12.816406 12.816406h127.753906c.5625.105469 1.128907.167969 1.703126.167969h26.789062c.574219 0 1.140625-.0625 1.703125-.167969h88.957031c.394532.046875.792969.074219 1.191406.074219h50.65625c.402344 0 .796876-.027344 1.191407-.074219h186.421875c7.066406 0 12.816406-5.75 12.816406-12.816406v-15.078125c0-7.070313-5.75-12.820313-12.816406-12.820313zm-201.699219-262.128906c-.855469 3.097656-2.867187 5.675781-5.660156 7.257813-2.792969 1.589843-6.039063 1.988281-9.136719 1.132812-6.394531-1.765625-10.160156-8.402344-8.390625-14.796875 1.46875-5.328125 6.320313-8.828125 11.597656-8.828125 1.054688 0 2.128907.140625 3.199219.433594 6.390625 1.765625 10.15625 8.40625 8.390625 14.800781zm58.273437 53.964844 47.503907 90.90625c.578125 1.109375.285156 2.46875-.703125 3.238281-1.125.875-2.757813.671875-3.628906-.453125l-99.183594-127.570313c4.851562-2.882812 8.613281-7.113281 10.878906-12.1875 19.140625 10.542969 34.984375 26.640626 45.132812 46.066407zm-63.921874-153.585938 44.503906-92.410156c.542968-1.128906 1.808594-1.707031 3.019531-1.371094.898437.25 1.363281.867188 1.558594 1.21875.199219.347657.492187 1.0625.242187 1.960938l-44.757812 162.039062c-1.058594-.445312-2.15625-.835937-3.292969-1.152343-3.449219-.949219-6.925781-1.179688-10.277344-.796876-4.507812-23.417968-1.359375-47.980468 9.003907-69.488281zm-40.910157 376.832031-.398437 10.554688h-72.554688l-.398437-10.554688zm-88.042969 10.554688h-14.425781l4.503907-119.25 5.882812 12.3125zm-4.898437-150.203125c-.109375 1.003906-.691406 1.613281-1.03125 1.886719-.335937.273437-1.054687.710937-2.0625.605468-1.003906-.109374-1.613281-.691406-1.886719-1.027343-.046875-.0625-.105468-.148438-.160156-.234375-.03125-.050782-.0625-.097656-.089844-.144532-.222656-.394531-.433594-.960937-.355468-1.683593.109374-1.007813.691406-1.613281 1.03125-1.886719.300781-.246094.90625-.625 1.75-.625.101562 0 .203124.007812.308593.019531 1.539063.164063 2.660157 1.550781 2.496094 3.089844zm20.808594 37.660156 7.878906 28.867188-24.132813-50.507813c1.078126-.488281 2.109376-1.101562 3.089844-1.808594 6.234375 6.585938 10.742188 14.574219 13.164063 23.449219zm2.371093-76.476562 23.921876-17.976563-39.121094 42.246094c-.789063-.597656-1.625-1.136719-2.515625-1.601562 3.800781-8.929688 9.917969-16.808594 17.714843-22.667969zm-75.789062 40.277343-28.710938-8.445312 60.640626 6.492188c-.003907.574218.015624 1.148437.0625 1.714843-10.359376 3.195313-21.5625 3.304688-31.992188.238281zm-90.296875 138.1875h118.6875l-.398437 10.554688h-118.289063zm0 0"/></svg>