<svg height="512pt" viewBox="0 -27 512.00067 512" width="512pt" xmlns="http://www.w3.org/2000/svg"><path d="m187.199219 66.335938v-13.394532c0-4.144531-3.359375-7.5-7.5-7.5s-7.5 3.355469-7.5 7.5v13.394532c0 4.144531 3.359375 7.5 7.5 7.5s7.5-3.359376 7.5-7.5zm0 0"/><path d="m335.246094 66.335938v-13.394532c0-4.144531-3.359375-7.5-7.503906-7.5-4.140626 0-7.5 3.355469-7.5 7.5v13.394532c0 4.144531 3.359374 7.5 7.5 7.5 4.144531 0 7.503906-3.359376 7.503906-7.5zm0 0"/><path d="m253.722656 80.988281c9.285156 0 18-3.878906 23.914063-10.648437 2.726562-3.117188 2.410156-7.855469-.710938-10.582032-3.117187-2.726562-7.855469-2.40625-10.582031.710938-3.066406 3.507812-7.667969 5.519531-12.621094 5.519531-4.957031 0-9.558594-2.011719-12.625-5.519531-2.726562-3.117188-7.464844-3.4375-10.582031-.710938-3.121094 2.726563-3.4375 7.464844-.710937 10.582032 5.914062 6.769531 14.632812 10.648437 23.917968 10.648437zm0 0"/><path d="m360.851562 346.9375c4.140626 0 7.5-3.359375 7.5-7.5 0-4.144531-3.359374-7.5-7.5-7.5h-59.226562c-4.140625 0-7.5 3.355469-7.5 7.5 0 4.140625 3.359375 7.5 7.5 7.5zm0 0"/><path d="m481.683594 43.96875c-23.398438 4.152344-46.519532 12.65625-68.160156 24.855469v-14.144531c0-30.148438-24.527344-54.679688-54.679688-54.679688 0 0-304.15625 0-304.164062 0-30.148438 0-54.679688 24.53125-54.679688 54.679688v17.066406c0 4.140625 3.359375 7.5 7.5 7.5h86.859375v202.835937c0 4.144531 3.359375 7.5 7.5 7.5 4.144531 0 7.5-3.355469 7.5-7.5v-227.402343c0-14.792969-6.347656-29.511719-17.09375-39.679688h266.578125c21.878906 0 39.679688 17.800781 39.679688 39.679688v23.308593c-5.757813 3.839844-11.363282 7.960938-16.816407 12.316407-15.054687 12.027343-28.714843 25.816406-40.574219 41.011718-.179687.226563-.359374.457032-.535156.6875h-179.511718c-4.140626 0-7.5 3.359375-7.5 7.5 0 4.144532 3.359374 7.5 7.5 7.5h168.78125c-.015626.023438-.027344.042969-.042969.066406-4.792969 7.265626-9.1875 14.820313-13.140625 22.578126h-155.597656c-4.140626 0-7.5 3.359374-7.5 7.5 0 4.144531 3.359374 7.5 7.5 7.5h148.636718c-.167968.402343-.332031.804687-.5 1.203124-2.894531 7.011719-5.441406 14.164063-7.582031 21.441407h-140.554687c-4.140626 0-7.5 3.355469-7.5 7.5 0 4.140625 3.359374 7.5 7.5 7.5h136.746093c-.03125.136719-1.054687 5.152343-1.46875 7.523437 0 0-35.816406 35.828125-35.855469 35.867188-8.882812 8.953125-7.109374 25.003906 3.355469 31.929687.027344.019531.050781.03125.074219.046875 7.972656 5.152344 19.261719 4.070313 26.03125-2.671875.011719-.007812 35.789062-35.78125 35.789062-35.78125.261719-.046875.527344-.101562.792969-.148437 25.363281-4.578125 49.785157-13.996094 71.96875-27.058594v146.445312h-202.296875c-4.144531 0-7.5 3.359376-7.5 7.5v17.066407c0 13.257812-6.980468 26.105469-17.890625 33.578125-6.78125 4.640625-14.335937 5.113281-22.238281 6.097656-21.671875-.238281-39.234375-17.945312-39.234375-39.675781v-90.929688c0-4.140625-3.355469-7.5-7.5-7.5-4.140625 0-7.5 3.359375-7.5 7.5v90.929688c0 30.148437 24.53125 54.679687 54.683594 54.679687h274.046875c30.148437 0 54.679687-24.527344 54.679687-54.679687v-17.066407c0-4.140624-3.355469-7.5-7.5-7.5h-56.746093v-156.101562c11.792968-8.199219 22.996093-17.542969 33.382812-27.929688 8.519531-8.519531 16.453125-17.695312 23.574219-27.273437 2.472656-3.324219 1.78125-8.023437-1.542969-10.496094-3.320312-2.472656-8.019531-1.78125-10.492188 1.542969-17.527343 23.566406-39.605468 44.015625-64.765624 59.210938-14.90625 9.089843-30.941407 16.421874-47.640626 21.527343 0 0 105.980469-105.980469 105.996094-105.996093 7.984375-7.984376 7.980469-21.5-.121094-29.503907-7.972656-7.851562-21.339843-7.816406-29.269531.109375l-106.011719 106.015625c.0625-.207031.125-.414062.1875-.621093 4.390626-14.148438 10.363282-27.800782 17.644532-40.695313 15.695312-27.785156 37.394531-52.132813 63.015625-71.144531 26.457031-19.621094 56.417969-32.957032 86.824219-38.351563 3.503906-.621093 6.972656.476563 9.515624 3.015625 2.539063 2.542969 3.636719 6.007813 3.015626 9.515625-3.804688 21.445313-11.4375 42.535157-22.691407 62.683594-2.019531 3.613281-.726562 8.183594 2.890625 10.203125 3.617188 2.019531 8.1875.726562 10.207032-2.890625 12.066406-21.613281 20.265624-44.28125 24.363281-67.375 1.46875-8.273437-1.214844-16.777344-7.179688-22.742187-5.964843-5.964844-14.46875-8.648438-22.742187-7.179688zm-466.683594 20.277344v-9.566406c0-21.878907 17.800781-39.679688 39.679688-39.679688.074218 0 .148437.007812.222656.007812 21.113281.140626 39.328125 18.308594 39.453125 39.4375 0 .078126.007812.15625.007812.234376v9.566406zm447.769531 338.765625c0 21.878906-17.800781 39.679687-39.679687 39.679687h-236.40625c6.570312-6.234375 11.53125-14.050781 14.359375-22.765625 2.722656-8.386719 2.679687-17.5 2.679687-26.476562h202.304688 56.742187zm-28.46875-289.6875c2.214844-1.332031 5.246094-1.0625 7.128907.820312 2.214843 2.214844 2.199218 5.980469 0 8.179688-.003907 0-162.03125 162.027343-162.03125 162.027343-1.90625 1.90625-5.03125 2.222657-7.277344.734376-2.945313-1.945313-3.402344-6.339844-.941406-8.859376.011718-.015624.023437-.035156.039062-.050781 0 0 161.84375-161.84375 162.03125-162.03125.320312-.320312.671875-.589843 1.050781-.820312zm0 0"/></svg>