<svg xmlns="http://www.w3.org/2000/svg" width="101.021" height="101" viewBox="0 0 101.021 101">
  <g id="worldwide" transform="translate(0 -0.05)">
    <g id="Group_16" data-name="Group 16" transform="translate(0 0.05)">
      <path id="Path_16" data-name="Path 16" d="M50.528.05A50.5,50.5,0,0,0,4.1,30.673l-.63.209.244.732A50.5,50.5,0,1,0,50.528.05ZM90.14,76.011,87.547,73.42V67.383a1.681,1.681,0,0,0-.168-.752L80.814,53.519V47.183a1.683,1.683,0,0,0-.749-1.4l-5.05-3.367a1.684,1.684,0,0,0-1.347-.232l-6.185,1.545L57.1,39.272,55.666,29.259,59.627,25.3h8.5l2.862,4.3a1.683,1.683,0,0,0,1.124.726l10.1,1.683a1.669,1.669,0,0,0,.808-.064l9.3-3.1A46.965,46.965,0,0,1,90.14,76.011ZM83.2,16.638,80.46,18.462l-7.631-1.527-4.951-1.648a1.653,1.653,0,0,0-.939-.037l-6.259,1.564L57.937,15.9l2.033-4.067h5.693a1.683,1.683,0,0,0,.752-.177L72.24,8.744A47.306,47.306,0,0,1,83.2,16.638ZM32.076,7.176l4.04,2.693a1.681,1.681,0,0,0,.658.259l8.157,1.36-.8,2.382-4.25,1.419a1.683,1.683,0,0,0-.911.729L34.14,24.075l-7.765,4.659L14.928,30.369a1.683,1.683,0,0,0-1.448,1.665v5.05a1.683,1.683,0,0,0,.493,1.19l2.873,2.873v2.892l-7-4.67L7.3,31.749A47.4,47.4,0,0,1,32.076,7.176ZM27.283,62.367l-7.609-1.523L16.847,55.2V51.247l6.272-6.272,2.321,4.644a1.684,1.684,0,0,0,1.507.931H37.777l4.56,7.6a1.683,1.683,0,0,0,1.443.816h4.68l-1.178,5.9-6.373,6.373a1.684,1.684,0,0,0-.495,1.19v4.208l-6.06,4.545a1.684,1.684,0,0,0-.673,1.347v6.08l-2.094-.694L28.63,80.527V64.017A1.683,1.683,0,0,0,27.283,62.367Zm-5.06,25.877A47.121,47.121,0,0,1,5.435,36.787l1.4,4.195a1.682,1.682,0,0,0,.662.869l8.391,5.594L13.973,49.36a1.683,1.683,0,0,0-.493,1.19V55.6a1.683,1.683,0,0,0,.177.752l3.367,6.733a1.684,1.684,0,0,0,1.178.9l7.07,1.412V80.85a1.684,1.684,0,0,0,.12.625l3.367,8.417a1.684,1.684,0,0,0,1.032.971l5.05,1.683a1.654,1.654,0,0,0,.524.088,1.683,1.683,0,0,0,1.683-1.683V83.375l6.06-4.545a1.684,1.684,0,0,0,.673-1.347V73.13l6.24-6.24a1.685,1.685,0,0,0,.46-.86l1.683-8.417a1.683,1.683,0,0,0-1.65-2.013H44.733L40.173,48a1.683,1.683,0,0,0-1.443-.816H27.987l-2.892-5.8a1.683,1.683,0,0,0-1.237-.909,1.65,1.65,0,0,0-1.459.471L20.213,43.12V40.45a1.683,1.683,0,0,0-.493-1.19l-2.873-2.873V33.493l10.339-1.476a1.691,1.691,0,0,0,.628-.224l8.417-5.05a1.682,1.682,0,0,0,.576-.576l4.73-7.883L46,16.8a1.666,1.666,0,0,0,1.064-1.064l1.683-5.05a1.684,1.684,0,0,0-1.32-2.188L37.68,6.869,35.968,5.728a47,47,0,0,1,32.374,1.2L65.266,8.467H58.93a1.683,1.683,0,0,0-1.515.931l-3.367,6.733a1.684,1.684,0,0,0,.975,2.348l5.05,1.683a1.653,1.653,0,0,0,.939.037l6.259-1.564,4.585,1.527a1.238,1.238,0,0,0,.2.054L80.475,21.9a1.671,1.671,0,0,0,1.264-.249L85.571,19.1a47.489,47.489,0,0,1,5.063,6.765l-8.282,2.761-8.967-1.495-2.963-4.444a1.683,1.683,0,0,0-1.392-.749H58.93a1.683,1.683,0,0,0-1.19.493l-5.05,5.05a1.683,1.683,0,0,0-.476,1.429L53.9,40.689A1.683,1.683,0,0,0,54.907,42l11.783,5.05a1.664,1.664,0,0,0,1.071.086l6.011-1.5,3.675,2.454v5.833a1.681,1.681,0,0,0,.168.752L84.18,67.781v6.336a1.683,1.683,0,0,0,.493,1.19l3.522,3.523A47.121,47.121,0,0,1,22.223,88.244Z" transform="translate(0 -0.05)" fill="#3f4040"/>
    </g>
  </g>
</svg>
